<svg width="25" height="25" viewBox="0 0 25 25" fill="none" xmlns="http://www.w3.org/2000/svg">
<g id="eva:search-fill">
<path id="Vector" d="M21.21 19.79L17.81 16.4C18.907 15.0025 19.5022 13.2767 19.5 11.5C19.5 9.91775 19.0308 8.37103 18.1518 7.05544C17.2727 5.73985 16.0233 4.71447 14.5615 4.10897C13.0997 3.50347 11.4911 3.34504 9.93928 3.65372C8.38743 3.9624 6.96197 4.72433 5.84315 5.84315C4.72433 6.96197 3.9624 8.38743 3.65372 9.93928C3.34504 11.4911 3.50347 13.0997 4.10897 14.5615C4.71447 16.0233 5.73985 17.2727 7.05544 18.1518C8.37103 19.0308 9.91775 19.5 11.5 19.5C13.2767 19.5022 15.0025 18.907 16.4 17.81L19.79 21.21C19.883 21.3037 19.9936 21.3781 20.1154 21.4289C20.2373 21.4797 20.368 21.5058 20.5 21.5058C20.632 21.5058 20.7627 21.4797 20.8846 21.4289C21.0064 21.3781 21.117 21.3037 21.21 21.21C21.3037 21.117 21.3781 21.0064 21.4289 20.8846C21.4797 20.7627 21.5058 20.632 21.5058 20.5C21.5058 20.368 21.4797 20.2373 21.4289 20.1154C21.3781 19.9936 21.3037 19.883 21.21 19.79ZM5.5 11.5C5.5 10.3133 5.8519 9.15328 6.51119 8.16658C7.17047 7.17989 8.10755 6.41085 9.2039 5.95673C10.3003 5.5026 11.5067 5.38378 12.6705 5.61529C13.8344 5.8468 14.9035 6.41825 15.7426 7.25736C16.5818 8.09648 17.1532 9.16558 17.3847 10.3295C17.6162 11.4933 17.4974 12.6997 17.0433 13.7961C16.5892 14.8925 15.8201 15.8295 14.8334 16.4888C13.8467 17.1481 12.6867 17.5 11.5 17.5C9.9087 17.5 8.38258 16.8679 7.25736 15.7426C6.13214 14.6174 5.5 13.0913 5.5 11.5Z" fill="#F8F8F8"/>
</g>
</svg>
