<svg width="70" height="70" viewBox="0 0 70 70" fill="none" xmlns="http://www.w3.org/2000/svg">
<g id="ic:round-navigate-next" opacity="0.75">
<path id="Vector" d="M27.1542 19.5708C26.8838 19.8407 26.6693 20.1612 26.5229 20.514C26.3765 20.8668 26.3012 21.2451 26.3012 21.6271C26.3012 22.0091 26.3765 22.3873 26.5229 22.7401C26.6693 23.093 26.8838 23.4135 27.1542 23.6833L38.4708 35L27.1542 46.3167C26.6088 46.862 26.3024 47.6017 26.3024 48.3729C26.3024 49.1442 26.6088 49.8838 27.1542 50.4292C27.6995 50.9745 28.4392 51.2809 29.2104 51.2809C29.9817 51.2809 30.7213 50.9745 31.2667 50.4292L44.6542 37.0417C44.9246 36.7718 45.1391 36.4513 45.2854 36.0985C45.4318 35.7456 45.5071 35.3674 45.5071 34.9854C45.5071 34.6034 45.4318 34.2252 45.2854 33.8723C45.1391 33.5195 44.9246 33.199 44.6542 32.9292L31.2667 19.5417C30.1583 18.4333 28.2917 18.4333 27.1542 19.5708Z" fill="white"/>
</g>
</svg>
