<svg width="19" height="21" viewBox="0 0 19 21" fill="none" xmlns="http://www.w3.org/2000/svg">
<path id="Vector" fill-rule="evenodd" clip-rule="evenodd" d="M15.7308 11.7461C15.8692 12.5769 16.0077 13.2692 16.2846 14.1L17.1154 16.4538L16.4231 17.4231H11.5769C11.5769 18.1154 11.3 18.8077 10.7462 19.3615C10.1923 19.9154 9.5 20.1923 8.80769 20.1923C8.11539 20.1923 7.28462 19.9154 6.86923 19.3615C6.31538 18.8077 6.03846 18.1154 6.03846 17.4231H1.19231L0.5 16.4538L1.33077 14.1C1.60769 12.9923 1.88462 11.8846 1.88462 10.7769V7.73076C1.88462 6.76153 2.02308 5.79229 2.43846 4.96152C2.85385 3.99229 3.40769 3.29999 4.1 2.60768C4.79231 1.91537 5.62308 1.49999 6.59231 1.22306C7.28462 0.94614 8.11539 0.807678 8.80769 0.807678C8.53077 1.22306 8.25385 1.77691 7.97692 2.33076C7.7 2.33076 7.42308 2.33076 7.00769 2.60768C6.31538 2.74614 5.62308 3.16152 5.06923 3.71537C4.51539 4.13076 3.96154 4.82306 3.68462 5.51537C3.40769 6.20768 3.26923 6.89999 3.26923 7.73076V10.7769C3.26923 12.0231 2.99231 13.2692 2.71538 14.5154L2.16154 16.0384H15.4538L14.9 14.5154C14.6577 13.7871 14.5206 12.9508 14.3974 12.1975L14.3462 11.8846C14.9 11.8846 15.3154 11.8846 15.7308 11.7461ZM8.80769 18.8077C9.08462 18.8077 9.5 18.6692 9.77692 18.3923C10.0538 18.1154 10.1923 17.8384 10.1923 17.4231H7.42308C7.42308 17.8384 7.56154 18.1154 7.83846 18.3923C8.11539 18.6692 8.53077 18.8077 8.80769 18.8077ZM18.5 4.96152C18.5 6.06319 18.0624 7.11974 17.2834 7.89874C16.5044 8.67774 15.4478 9.11537 14.3462 9.11537C13.2445 9.11537 12.1879 8.67774 11.4089 7.89874C10.6299 7.11974 10.1923 6.06319 10.1923 4.96152C10.1923 3.85986 10.6299 2.80331 11.4089 2.02431C12.1879 1.24531 13.2445 0.807678 14.3462 0.807678C15.4478 0.807678 16.5044 1.24531 17.2834 2.02431C18.0624 2.80331 18.5 3.85986 18.5 4.96152Z" fill="white"/>
</svg>
